<svg xmlns="http://www.w3.org/2000/svg" xmlns:xlink="http://www.w3.org/1999/xlink" version="1.1" x="0px" y="0px" viewBox="0 0 50 62.5" enable-background="new 0 0 50 50" xml:space="preserve"><g><path d="M23.4,35.3c-3.1,1.2-5.9,2.7-8,4.5c-1.4-1.7-4.1-3.1-7.9-4.5H4.7c-0.6,0-1.2-0.1-1.7-0.3v4.9c0,3,2.5,5.5,5.5,5.5h33   c3,0,5.5-2.4,5.5-5.5v-4.9c-0.5,0.2-1.1,0.3-1.7,0.3H23.4z"/><path d="M45.7,28.8c-0.9,0-1.7-0.2-2.4-0.5c-2.4,0.9-4.8,2.3-6.3,3.6c-0.6-0.7-1.4-1.5-2.6-2.3c-0.5,0.1-0.9,0.2-1.4,0.2   c-1.2,0-2.3-0.4-3.3-1c-0.7,0.3-1.5,0.5-2.3,0.5c-1.3,0-2.6-0.5-3.6-1.3c-0.5,0.1-1,0.2-1.6,0.2c-0.8,0-1.5-0.2-2.2-0.5   c-0.7,0.3-1.4,0.5-2.2,0.5c-0.8,0-1.6-0.2-2.3-0.5c-0.7,0.3-1.5,0.5-2.3,0.5c-0.8,0-1.6-0.2-2.3-0.5c-0.7,0.3-1.5,0.5-2.3,0.5   c-0.9,0-1.7-0.2-2.5-0.6c-0.8,0.4-1.6,0.6-2.5,0.6c-0.7,0-1.4-0.1-2-0.4C1.2,28.3,1,29,1,29.6c0,2,1.6,3.7,3.7,3.7h40.6   c2,0,3.7-1.7,3.7-3.7c0-0.6-0.1-1.1-0.4-1.6C47.8,28.5,46.8,28.8,45.7,28.8z"/><path d="M49.4,21.6c-0.3-0.6-1-1-1.7-1H2.2c-1,0-2,0.8-2,1.9v0c0,1.9,1.5,3.5,3.3,3.6c1.1,0.1,2.1-0.3,2.8-1   c1.3,1.2,3.3,1.4,4.8,0.2c1.5,1.2,3.4,1.1,4.6,0c1.2,1,3.2,1.1,4.5,0.1c1,0.8,2.3,1,3.4,0.6H25c1.3,1.6,3.8,1.8,5.4,0.2   c1.5,2.3,4.9,2.1,6.2-0.2c0.2-0.3,0.3-0.6,0.4-1c0,0,0,0,0.1,0c1.3,2.4,4.6,2.5,6.1,0.3c1.6,2.4,5.3,1.9,6.3-0.8   C49.9,23.5,49.8,22.5,49.4,21.6z"/><path d="M25,4.6c-11.7,0-21.3,6.2-22,14h44C46.3,10.8,36.7,4.6,25,4.6z M9.8,15.4c-0.8,0-1.5-0.3-1.5-0.8c0-0.4,0.7-0.8,1.5-0.8   s1.5,0.3,1.5,0.8C11.3,15,10.6,15.4,9.8,15.4z M14.2,11.4c-0.8,0-1.5-0.4-1.5-0.8c0-0.4,0.7-0.8,1.5-0.8s1.5,0.4,1.5,0.8   C15.7,11.1,15.1,11.4,14.2,11.4z M17.8,13.4c-0.8,0-1.5-0.4-1.5-0.8c0-0.4,0.7-0.8,1.5-0.8s1.5,0.4,1.5,0.8   C19.3,13.1,18.6,13.4,17.8,13.4z M20.8,16.6c-0.8,0-1.5-0.4-1.5-0.8c0-0.4,0.7-0.8,1.5-0.8c0.8,0,1.5,0.3,1.5,0.8   C22.2,16.2,21.6,16.6,20.8,16.6z M21.2,7.7c0-0.4,0.7-0.8,1.5-0.8s1.5,0.4,1.5,0.8c0,0.4-0.7,0.8-1.5,0.8S21.2,8.2,21.2,7.7z    M25,12.4c-0.8,0-1.5-0.3-1.5-0.8c0-0.4,0.7-0.8,1.5-0.8s1.5,0.4,1.5,0.8C26.5,12,25.8,12.4,25,12.4z M28.7,15.8   c-0.8,0-1.5-0.3-1.5-0.8c0-0.4,0.7-0.8,1.5-0.8s1.5,0.3,1.5,0.8C30.2,15.4,29.5,15.8,28.7,15.8z M29.8,8.8c-0.8,0-1.5-0.4-1.5-0.8   s0.7-0.8,1.5-0.8s1.5,0.4,1.5,0.8S30.7,8.8,29.8,8.8z M33.3,9.8c0-0.4,0.7-0.8,1.5-0.8s1.5,0.4,1.5,0.8c0,0.4-0.7,0.8-1.5,0.8   S33.3,10.3,33.3,9.8z M35.1,14.2c-0.8,0-1.5-0.4-1.5-0.8c0-0.4,0.7-0.8,1.5-0.8s1.5,0.4,1.5,0.8C36.5,13.8,35.9,14.2,35.1,14.2z    M40,15.4c-0.8,0-1.5-0.3-1.5-0.8c0-0.4,0.7-0.8,1.5-0.8s1.5,0.3,1.5,0.8C41.5,15,40.8,15.4,40,15.4z"/></g></svg>