<svg enable-background="new 0 0 100 100" viewBox="0 0 100 125" xmlns="http://www.w3.org/2000/svg"><path d="m92.675 64.015c-.468 1.635-1.161 3.158-2.47 4.392-.108.102-.135.275-.193.418-1.053 2.644-2.095 5.29-3.162 7.928-.981 2.423-1.801 4.921-3.028 7.234-1.454 2.739-3.229 5.354-6.733 6.312h-53.898c-.911-.447-1.929-.768-2.708-1.359-2.15-1.632-3.595-3.778-4.593-6.144-1.335-3.165-2.546-6.376-3.816-9.564-.664-1.666-.998-3.69-1.968-5.187-1.092-.937-1.896-2.47-2.336-4.03 13.101.164 80.693-.219 84.905 0"/><path d="m5.682 53.811c1-3.503 4.152-5.962 7.979-6.267.311-.024.739-.223.875-.461 3.26-5.756 8.28-9.744 14.366-12.618 7.936-3.748 16.393-4.931 25.183-4.353 7.369.483 14.291 2.336 20.584 6.044 4.677 2.755 8.557 6.251 11.131 10.925.118.213.457.461.692.458 4.438-.047 8.248 3.098 8.864 7.081.011.076.882 3.776-2.68 6.387-.114.11-62.419-.182-84.906 0-3.032-2.366-2.187-6.854-2.088-7.196m10.689-2.992c-.654-.079-1.176-.153-1.7-.203-3.463-.331-6.555 2.749-6.04 5.979.09.571.283.784.933.781 6.04-.024 12.08-.016 18.12-.016 15.569-.002 31.136 0 46.706-.002 5.6 0 11.199-.012 16.8.016.717.002.942-.227 1.037-.868.396-2.64-1.782-5.455-4.658-5.805-1.136-.139-2.309-.022-3.587-.022-.401-.811-.835-1.868-1.422-2.841-3.062-5.067-7.704-8.502-13.207-10.903-10.759-4.7-21.88-5.145-33.152-1.936-6.218 1.771-11.683 4.813-15.973 9.529-1.692 1.859-2.98 3.946-3.857 6.291"/><path d="m60.993 40.397c.194.059.61.126.971.305 1.491.727 2.599 1.836 3.225 3.385.242.599.456 1.353-.15 1.742-.426.268-1.19.308-1.676.122-1.719-.663-2.957-1.903-3.6-3.645-.426-1.155.013-1.899 1.23-1.909"/><path d="m35.418 44.87c.09-1.783 2.689-4.394 4.45-4.475.962-.041 1.433.484 1.284 1.439-.277 1.787-2.573 4.067-4.355 4.324-.878.126-1.425-.385-1.379-1.288"/><path d="m61.453 22.529c.573-1.673-.206-3.347-.718-5.086-.633-2.149-.543-4.229.471-6.181.572-1.103 1.537-1.4 2.353-.725.632.523.889 1.354.468 2.155-.836 1.583-.604 3.08-.04 4.656.664 1.86.973 3.788.458 5.815-.32 1.26-1.201 1.846-2.13 1.379-.596-.298-.939-.845-.862-2.013"/><path d="m49.704 22.529c.571-1.673-.207-3.347-.719-5.086-.634-2.149-.542-4.229.471-6.181.574-1.103 1.538-1.4 2.353-.725.632.523.889 1.354.468 2.155-.836 1.583-.605 3.08-.04 4.656.662 1.86.973 3.788.459 5.815-.323 1.26-1.202 1.846-2.131 1.379-.595-.298-.939-.845-.861-2.013"/><path d="m37.232 22.529c.572-1.673-.206-3.347-.719-5.086-.633-2.149-.542-4.229.471-6.181.574-1.103 1.539-1.4 2.352-.725.633.523.889 1.354.468 2.155-.835 1.583-.604 3.08-.04 4.656.664 1.86.974 3.788.459 5.815-.322 1.26-1.202 1.846-2.13 1.379-.595-.298-.938-.845-.861-2.013"/><path d="m49.373 48.692c-1.218-1.306-1.283-4.99-.116-6.312.639-.72 1.344-.691 1.927.08 1.091 1.441 1.129 4.678.074 6.136-.52.718-1.267.758-1.885.096"/></svg>