<svg xmlns:dc="http://purl.org/dc/elements/1.1/" xmlns:cc="http://creativecommons.org/ns#" xmlns:rdf="http://www.w3.org/1999/02/22-rdf-syntax-ns#" xmlns:svg="http://www.w3.org/2000/svg" xmlns="http://www.w3.org/2000/svg" xmlns:sodipodi="http://sodipodi.sourceforge.net/DTD/sodipodi-0.dtd" xmlns:inkscape="http://www.inkscape.org/namespaces/inkscape" version="1.1" x="0px" y="0px" viewBox="0 0 100 125"><g transform="translate(0,-952.36218)"><path style="text-indent:0;text-transform:none;direction:ltr;block-progression:tb;baseline-shift:baseline;color:#000000;enable-background:accumulate;" d="m 49.781467,958.33901 a 1.9978875,2.0007267 0 0 0 -1.591908,1.09404 l -3.652023,7.31442 c -2.369935,-1.69696 -5.868373,-1.96921 -8.677457,-0.0937 a 1.9978875,2.0007267 0 0 0 -0.780346,2.28185 c 0.522301,1.61569 0.606073,2.86977 0.436994,4.00105 -3.98936,-0.76157 -8.788687,0.43164 -12.017341,4.06357 a 1.9978875,2.0007267 0 0 0 0.936416,3.25086 c 5.471648,1.60894 8.731,3.00361 11.174566,6.97058 -5.805876,4.3235 -10.075272,11.21177 -11.798843,19.22374 a 1.9978875,2.0007267 0 0 0 -0.09364,0.5002 c -0.479136,2.3876 -0.749133,4.8606 -0.749133,7.4082 0,17.4452 11.870642,31.9771 27,31.9771 15.129358,0 27,-14.5319 27,-31.9771 0,-2.5476 -0.269997,-5.0206 -0.749133,-7.4082 -0.002,-0.01 0.002,-0.021 0,-0.031 a 1.9978875,2.0007267 0 0 0 -0.03121,-0.1876 1.9978875,2.0007267 0 0 0 -0.06243,-0.2814 c -0.0089,-0.042 -0.02215,-0.084 -0.03121,-0.125 a 1.9978875,2.0007267 0 0 0 -0.06243,-0.1875 c -1.763828,-7.86344 -5.990563,-14.61195 -11.705202,-18.87998 2.445092,-3.98398 5.69278,-5.38992 11.174566,-7.00184 a 1.9978875,2.0007267 0 0 0 0.936416,-3.25086 c -3.228654,-3.63193 -8.027981,-4.82514 -12.017341,-4.06357 -0.169079,-1.13128 -0.08531,-2.38536 0.436994,-4.00105 a 1.9978875,2.0007267 0 0 0 -0.780346,-2.28185 c -2.809084,-1.87538 -6.307522,-1.60314 -8.677457,0.0937 l -3.652023,-7.31442 a 1.9978875,2.0007267 0 0 0 -1.966474,-1.09404 z m 0.187283,6.43919 3.215029,6.4392 a 1.9978875,2.0007267 0 0 0 3.683237,-0.25007 c 0.307797,-0.91951 2.093668,-1.78535 3.808092,-1.40662 -0.508714,2.18973 -0.74225,4.50773 0.530636,6.75178 a 1.9978875,2.0007267 0 0 0 2.559538,0.84397 c 1.5094,-0.6615 4.323063,-0.49614 6.77341,0.56265 -3.942037,1.52748 -7.208214,3.6277 -9.582659,7.37695 -3.337136,-1.75709 -7.058968,-2.71947 -10.987283,-2.71947 -3.928315,0 -7.650147,0.96238 -10.987283,2.71947 -2.374445,-3.74925 -5.640622,-5.84947 -9.582659,-7.37695 2.450347,-1.05879 5.26401,-1.22415 6.77341,-0.56265 a 1.9978875,2.0007267 0 0 0 2.559538,-0.84397 c 1.272886,-2.24405 1.03935,-4.56205 0.530636,-6.75178 1.714424,-0.37873 3.500295,0.48711 3.808092,1.40662 a 1.9978875,2.0007267 0 0 0 3.683237,0.25007 l 3.215029,-6.4392 z m -2.965318,21.78699 c -1.917141,2.09006 -3.885806,4.13068 -5.899422,6.0641 -0.738887,-0.91789 -1.493506,-1.83543 -2.216185,-2.78198 2.477634,-1.67812 5.214838,-2.81813 8.115607,-3.28212 z m 5.930636,0 c 2.900762,0.464 5.637978,1.604 8.115607,3.28212 -0.722679,0.94655 -1.477298,1.86409 -2.216185,2.78198 -2.013616,-1.93342 -3.982281,-3.97404 -5.899422,-6.0641 z m -2.965318,2.71947 c 2.041439,2.22679 4.145688,4.37705 6.305202,6.43919 -2.064905,2.42128 -4.146338,4.77035 -6.305202,7.00185 -2.158864,-2.2315 -4.240297,-4.58057 -6.305202,-7.00185 2.159515,-2.06214 4.263762,-4.2124 6.305202,-6.43919 z m -14.202312,3.0633 c 0.785017,1.02683 1.569483,2.03832 2.372254,3.03205 -1.589053,1.42194 -3.194252,2.76554 -4.806936,4.03232 -0.483402,-0.73715 -0.960224,-1.52031 -1.435838,-2.28186 1.140581,-1.77799 2.421439,-3.38901 3.87052,-4.78251 z m 28.404624,0 c 1.449081,1.3935 2.729939,3.00452 3.87052,4.78251 -0.475614,0.76155 -0.952436,1.54471 -1.435838,2.28186 -1.612684,-1.26678 -3.217883,-2.61038 -4.806936,-4.03232 0.802771,-0.99373 1.587237,-2.00522 2.372254,-3.03205 z m -23.504046,6.12662 c 2.103811,2.46472 4.299673,4.79482 6.492485,7.06442 -1.780198,1.7519 -3.579359,3.4491 -5.4,5.095 -2.106117,-2.454 -4.157833,-5.0916 -6.149133,-7.9083 1.708483,-1.3305 3.389046,-2.76578 5.056648,-4.25112 z m 18.603468,0 c 1.667602,1.48534 3.348165,2.92062 5.056648,4.25112 -1.9913,2.8167 -4.043016,5.4543 -6.149133,7.9083 -1.820641,-1.6459 -3.619802,-3.3431 -5.4,-5.095 2.192812,-2.2696 4.388674,-4.5997 6.492485,-7.06442 z m -29.559537,2.68822 c 0.139194,0.2142 0.26592,0.4441 0.40578,0.6564 -0.314859,0.223 -0.621593,0.441 -0.936416,0.6565 0.168942,-0.4393 0.34392,-0.8869 0.530636,-1.3129 z m 40.515606,0 c 0.187164,0.427 0.361332,0.8725 0.530636,1.3129 -0.314823,-0.2155 -0.621557,-0.4335 -0.936416,-0.6565 0.13986,-0.2123 0.266586,-0.4422 0.40578,-0.6564 z m -37.862427,3.9385 c 2.059215,2.9087 4.183465,5.6455 6.36763,8.1897 -1.932266,1.6751 -3.882843,3.298 -5.836994,4.8763 -1.927859,-2.4978 -3.794634,-5.1801 -5.618498,-8.0646 0.07999,-0.6429 0.197158,-1.2801 0.312139,-1.9068 1.601832,-0.9416 3.188006,-1.9762 4.775723,-3.0946 z m 35.209248,0 c 1.587717,1.1184 3.173891,2.153 4.775723,3.0946 0.114981,0.6267 0.232147,1.2639 0.312139,1.9068 -1.823864,2.8845 -3.690639,5.5668 -5.618498,8.0646 -1.954151,-1.5783 -3.904728,-3.2012 -5.836994,-4.8763 2.184165,-2.5442 4.308415,-5.281 6.36763,-8.1897 z m -17.604624,3.3134 c 1.838133,1.8132 3.680273,3.5528 5.556069,5.2514 -1.810892,1.9453 -3.674317,3.7514 -5.556069,5.4701 -1.881752,-1.7187 -3.745177,-3.5248 -5.556069,-5.4701 1.875796,-1.6986 3.717936,-3.4382 5.556069,-5.2514 z m -8.552601,7.8771 c 1.797503,1.9372 3.657979,3.7452 5.524855,5.4701 -2.138175,1.7925 -4.310341,3.4533 -6.523699,5.0013 -1.698919,-1.6994 -3.366378,-3.5073 -4.99422,-5.4389 2.006888,-1.6228 4.003234,-3.3029 5.993064,-5.0325 z m 17.105202,0 c 1.98983,1.7296 3.986176,3.4097 5.993064,5.0325 -1.627842,1.9316 -3.295301,3.7395 -4.99422,5.4389 -2.213358,-1.548 -4.385524,-3.2088 -6.523699,-5.0013 1.866876,-1.7249 3.727352,-3.5329 5.524855,-5.4701 z m -31.369942,0.8439 c 0.858985,1.2134 1.73983,2.3913 2.621965,3.5322 -0.625068,0.4888 -1.24739,0.9574 -1.872832,1.4379 -0.378048,-1.6047 -0.611419,-3.2538 -0.749133,-4.9701 z m 45.634682,0 c -0.137714,1.7163 -0.371085,3.3654 -0.749133,4.9701 -0.625435,-0.4805 -1.247772,-0.9491 -1.872832,-1.4379 0.882135,-1.1409 1.76298,-2.3188 2.621965,-3.5322 z m -40.484393,6.6581 c 1.548298,1.8413 3.099032,3.6062 4.713295,5.2513 -1.603295,1.0225 -3.234186,1.9906 -4.869364,2.907 -1.162715,-1.7487 -2.201935,-3.6523 -2.996532,-5.7202 1.0499,-0.7984 2.101516,-1.6153 3.152601,-2.4381 z m 35.334104,0 c 1.039534,0.8138 2.083,1.617 3.121387,2.4068 -0.795898,2.0757 -1.79875,3.997 -2.965318,5.7515 -1.635178,-0.9164 -3.266069,-1.8845 -4.869364,-2.907 1.614263,-1.6451 3.164997,-3.41 4.713295,-5.2513 z m -17.667052,0.6563 c 2.15121,1.8301 4.329705,3.5376 6.554913,5.1264 -2.141974,1.9374 -4.304804,3.7417 -6.554913,5.3764 -2.250109,-1.6347 -4.412939,-3.439 -6.554913,-5.3764 2.225208,-1.5888 4.403703,-3.2963 6.554913,-5.1264 z m -9.988439,7.4395 c 2.111738,1.9581 4.27733,3.766 6.492485,5.4389 -1.660724,1.0768 -3.339574,2.0871 -5.056647,3.0321 -2.505487,-1.2348 -4.815457,-3.007 -6.804624,-5.1888 1.811247,-1.0286 3.59416,-2.1235 5.368786,-3.2822 z m 19.976878,0 c 1.766863,1.1536 3.534397,2.2576 5.337573,3.2822 -1.989168,2.1818 -4.267924,3.954 -6.773411,5.1888 -1.717073,-0.945 -3.395923,-1.9553 -5.056647,-3.0321 2.215155,-1.6729 4.380747,-3.4808 6.492485,-5.4389 z m -9.988439,7.9709 c 1.152164,0.7798 2.318109,1.5046 3.495954,2.2193 -1.145067,0.2166 -2.307887,0.3126 -3.495954,0.3126 -1.188067,0 -2.350887,-0.096 -3.495954,-0.3126 1.177845,-0.7147 2.34379,-1.4395 3.495954,-2.2193 z" fill="#000000" fill-opacity="1" stroke="none" marker="none" visibility="visible" display="inline" overflow="visible"/></g></svg>