<svg xmlns="http://www.w3.org/2000/svg" data-name="Layer 3" viewBox="0 0 64 80" x="0px" y="0px"><path d="M63,28h0c0-6.5-15.973-10-31-10q-.6,0-1.2.008a3.682,3.682,0,0,0-.436-3.266l-1.063-1.6a1.79,1.79,0,0,1-.232-.528l8.838-1.5,21.877,4.862a1,1,0,0,0,1.111-.53l2-4a1,1,0,0,0-.706-1.429L53.8,8.41l8.372-1.425a1,1,0,0,0,.727-1.433l-2-4A1,1,0,0,0,59.8,1.019L37.984,5.383l-22.8-4.366a1.02,1.02,0,0,0-.825.212A1,1,0,0,0,14,2V5a1,1,0,0,0,.783.976l3.51.78-.657.986a3.765,3.765,0,0,0-.617,1.833l-2.215.444A1,1,0,0,0,14,11v3a1,1,0,0,0,1,1,.934.934,0,0,0,.167-.015l3.759-.64a1.769,1.769,0,0,1-.451,1.764l-.366.366A3.769,3.769,0,0,0,17,19.155c0,.014,0,.028,0,.042C7.954,20.731,1,23.714,1,28H1A33.484,33.484,0,0,0,16.685,56.456L20,58.55V60a3,3,0,0,0,3,3H41a3,3,0,0,0,3-3V58.55l3.315-2.094A33.486,33.486,0,0,0,63,28ZM32,40C16.313,40,5.671,36.539,3.443,33.235c-.072-.435-.146-.87-.2-1.309C8.152,35.894,20.356,38,32,38s23.847-2.105,28.756-6.073c-.054.44-.129.875-.2,1.311C58.324,36.541,47.684,40,32,40ZM20.363,21.742l-.634-.952q1.119-.151,2.3-.278a3.76,3.76,0,0,0,.61,1.745l.123.185q-.993.1-1.957.211A3.806,3.806,0,0,0,20.363,21.742Zm6.8-1.626a3.515,3.515,0,0,0-.029,2.006c-.708.034-1.4.079-2.1.128l-.735-1.1a1.769,1.769,0,0,1-.276-.824Q25.553,20.2,27.161,20.116ZM18.109,31.524l1.183,1.183,1.415-1.415-1.183-1.183a1.789,1.789,0,0,1-.224-2.257l1.063-1.595a3.763,3.763,0,0,0,.6-1.631c.957-.114,1.938-.218,2.958-.3a1.78,1.78,0,0,1,.078.52v.311a1.776,1.776,0,0,1-.3.992l-1.063,1.6a3.792,3.792,0,0,0,.473,4.782l1.183,1.182,1.415-1.414-1.183-1.183a1.789,1.789,0,0,1-.224-2.257l1.063-1.595a3.778,3.778,0,0,0,.636-2.1v-.311a3.716,3.716,0,0,0-.064-.659c.734-.045,1.486-.079,2.248-.107l.516.774a1.776,1.776,0,0,1,.3.992v.311a1.776,1.776,0,0,1-.3.992l-1.063,1.6a3.789,3.789,0,0,0,.474,4.781l1.183,1.183,1.414-1.415-1.183-1.182a1.789,1.789,0,0,1-.224-2.257l1.063-1.595a3.778,3.778,0,0,0,.636-2.1v-.311a3.774,3.774,0,0,0-.479-1.825C31.013,24.012,31.5,24,32,24c14.479,0,24.687,2.935,27.921,6.012C56.638,33.136,46.081,36,32,36S7.361,33.137,4.077,30.013c2.134-2.031,7.306-4,14.733-5.1a1.681,1.681,0,0,1-.111.235l-1.063,1.6a3.792,3.792,0,0,0,.473,4.782ZM61,28a1.866,1.866,0,0,1-.029.3C56.572,24.539,45.149,22,32,22q-1.39,0-2.752.038a1.729,1.729,0,0,1,.156-2C30.256,20.013,31.119,20,32,20,49.089,20,61,24.215,61,28ZM27.636,14.257l1.063,1.6a1.776,1.776,0,0,1-.187,2.212c-1.135.041-2.268.1-3.392.179a3.749,3.749,0,0,0,.243-4.5l-.295-.442,2.027-.345A3.748,3.748,0,0,0,27.636,14.257ZM19.962,12.14l-.655-.983,2.709-.541c0,.076-.016.151-.016.228v.311a3.881,3.881,0,0,0,.056.629ZM24,11.155v-.311a1.766,1.766,0,0,1,.14-.653l3.688-.738-.192.289a3.785,3.785,0,0,0-.514,1.179l-3.08.525A1.79,1.79,0,0,1,24,11.155Zm36.515.578-1.06,2.121L43.128,10.226l5.036-.858ZM60.5,5.24,29.526,10.512,30.6,8.9,59.446,3.13ZM16,3.209,32.782,6.423l-3.562.712L16,4.2Zm3.3,5.642,1.087-1.63,2.841.632-.37.555-3.7.739A1.819,1.819,0,0,1,19.3,8.851ZM16,11.819l1.281-.256a3.756,3.756,0,0,0,.355.694l.167.251-1.8.306Zm3.524,6.071.366-.366A3.709,3.709,0,0,0,20.9,14.01l2.013-.343.79,1.185a1.786,1.786,0,0,1-.224,2.257l-.366.366a3.78,3.78,0,0,0-.7,1q-1.721.174-3.382.409A1.773,1.773,0,0,1,19.524,17.89Zm-1.967,3.228c.028.046.049.1.079.139L18.7,22.852c.015.023.021.051.036.075-7.2,1.059-12.89,2.963-15.707,5.369A1.866,1.866,0,0,1,3,28C3,25.412,8.571,22.623,17.557,21.118ZM41,61H23a1,1,0,0,1-1-1V59H42v1A1,1,0,0,1,41,61Zm5.248-6.232L42.71,57H21.289l-3.537-2.233A31.484,31.484,0,0,1,4.184,36.583C9.212,39.865,19.752,42,32,42s22.788-2.133,27.816-5.415A31.481,31.481,0,0,1,46.247,54.766Z"/><path d="M35,28.414a1.447,1.447,0,0,1,2,0l.585.586a3.417,3.417,0,0,0,4.829,0L43,28.414a1.447,1.447,0,0,1,2,0l1.293,1.293,1.414-1.415L46.414,27a3.5,3.5,0,0,0-4.829,0L41,27.585a1.448,1.448,0,0,1-2,0L38.414,27a3.5,3.5,0,0,0-4.829,0l-1.293,1.292,1.415,1.415Z"/><path d="M35,32.414a1.448,1.448,0,0,1,2,0l.585.586a3.417,3.417,0,0,0,4.829,0L43,32.414a1.447,1.447,0,0,1,2,0l1.293,1.292,1.414-1.414L46.414,31a3.5,3.5,0,0,0-4.829,0L41,31.585a1.448,1.448,0,0,1-2,0L38.414,31a3.5,3.5,0,0,0-4.829,0l-1.293,1.292,1.415,1.414Z"/><path d="M9.585,29,8.292,30.292l1.415,1.415L11,30.414a1.448,1.448,0,0,1,2,0l1.293,1.293,1.414-1.415L14.414,29A3.5,3.5,0,0,0,9.585,29Z"/><path d="M51,30.414a1.448,1.448,0,0,1,2,0l1.293,1.293,1.414-1.415L54.414,29a3.5,3.5,0,0,0-4.829,0l-1.293,1.292,1.415,1.415Z"/></svg>