<svg xmlns="http://www.w3.org/2000/svg" data-name="Layer 1" viewBox="0 0 512 640" x="0px" y="0px"><title>Artboard 39</title><path d="M389.09,48.05A246.89,246.89,0,0,0,14.85,308.93,247.09,247.09,0,0,0,255.51,503a249,249,0,0,0,53.42-5.82,246.89,246.89,0,0,0,80.16-449.1ZM30.48,305.5c-27.3-124.35,51.67-247.72,176-275a232.7,232.7,0,0,1,50-5.45,232,232,0,0,1,178.12,84.46l-86,65.69A85.5,85.5,0,0,0,264,205V189.14A85.45,85.45,0,0,0,259.56,49.2l0,0c-.16-.11-.34-.2-.51-.3l-.19-.11c-.13-.07-.28-.13-.42-.19l-.31-.14-.14,0a8.17,8.17,0,0,0-2.79-.5h-.09l-.27,0a8,8,0,0,0-2.5.52l-.24.09-.26.13-.46.22-.16.1a5.84,5.84,0,0,0-.53.33h0A85.45,85.45,0,0,0,248,188v17a85.48,85.48,0,0,0-119.22-13.58l0,0c-.17.13-.33.27-.48.41l-.13.12c-.13.12-.24.25-.35.37l-.21.22-.12.17a8,8,0,0,0-1.31,2.35l-.06.17c0,.06,0,.13,0,.2a7.81,7.81,0,0,0-.32,2.65v.2c0,.1,0,.2,0,.31s0,.32.06.49,0,.12,0,.19.09.4.14.6v0a85.37,85.37,0,0,0,55.77,57.85h0a85.14,85.14,0,0,0,65.86-5.49l-26.81,20.49a85.43,85.43,0,0,0-92.07,8.59l0,0a4.81,4.81,0,0,0-.48.42l-.13.11c-.13.12-.24.25-.36.38l-.19.21-.14.18a8,8,0,0,0-1.3,2.35l-.06.16c0,.06,0,.13,0,.2a7.6,7.6,0,0,0-.32,2.65v.2c0,.1,0,.21,0,.31s0,.32.06.48,0,.14,0,.21.09.39.14.58v0a85.44,85.44,0,0,0,22.74,38L67.7,389.8A230.29,230.29,0,0,1,30.48,305.5ZM352.06,192.68a69.81,69.81,0,0,1,16.8,8.12,69.45,69.45,0,0,1-83.36,42.73Zm-83.52,43.67c-1.05-.61-2.08-1.26-3.1-1.94a69.43,69.43,0,0,1,64.76-45.17Zm-46.65,55.78a69.36,69.36,0,0,1,24.67,32.22,69.49,69.49,0,0,1-71.18,3.32ZM161.66,318a69.41,69.41,0,0,1-18.52-27.27A69.4,69.4,0,0,1,203,282.58c1.16.38,2.31.8,3.45,1.23Zm73.42-36L248,272.17V295A85.84,85.84,0,0,0,235.08,282.05Zm-5.33-161.54a69.38,69.38,0,0,1,25.56-54.7,69.43,69.43,0,0,1,1.38,108.73A69.4,69.4,0,0,1,229.75,120.51Zm16.81,113.9A69.42,69.42,0,0,1,143.14,200.8a69.43,69.43,0,0,1,103.42,33.61ZM305.5,481.52a232.7,232.7,0,0,1-50,5.45A232,232,0,0,1,77.42,402.51l84.25-64.38A85.35,85.35,0,0,0,248,342.06v42.86a85.46,85.46,0,0,0-119.24-13.6,8,8,0,0,0-2.76,8.5,85.37,85.37,0,0,0,55.77,57.85h0A85.33,85.33,0,0,0,248,432v24.11a8,8,0,1,0,16,0V432a85.44,85.44,0,0,0,122-52.2,8,8,0,0,0-2.76-8.5,85.4,85.4,0,0,0-79.13-14h0A85.34,85.34,0,0,0,264,384.88v-42.8a85.45,85.45,0,0,0,122-52.2v0c.05-.19.1-.39.14-.58s0-.14,0-.21,0-.32.06-.48,0-.21,0-.31v-.2a7.6,7.6,0,0,0-.32-2.65c0-.07,0-.14-.05-.2l-.06-.16a8,8,0,0,0-1.3-2.35l-.14-.18-.19-.21c-.12-.13-.23-.26-.36-.38l-.13-.11a4.81,4.81,0,0,0-.48-.42l0,0a85.37,85.37,0,0,0-79.13-14h0A85.34,85.34,0,0,0,264,295V260l6.3-4.82a85.13,85.13,0,0,0,59.89,2.66h0A85.37,85.37,0,0,0,386,199.94v0c.05-.2.1-.4.14-.6s0-.13,0-.19,0-.33.06-.49,0-.21,0-.31v-.2a7.81,7.81,0,0,0-.32-2.65c0-.07,0-.14-.05-.2l-.06-.17a8,8,0,0,0-1.31-2.35l-.12-.17-.21-.22c-.11-.12-.22-.25-.35-.37l-.13-.12c-.15-.14-.31-.28-.48-.41l0,0a85.35,85.35,0,0,0-16.36-10.07L444.3,122.2a230.29,230.29,0,0,1,37.22,84.3C508.82,330.85,429.85,454.22,305.5,481.52ZM143.13,380.68a69.45,69.45,0,0,1,103.44,33.61,69.33,69.33,0,0,1-59.83,8.16h0A69.39,69.39,0,0,1,143.13,380.68Zm122.3,33.61a69.45,69.45,0,0,1,103.44-33.61,69.46,69.46,0,0,1-103.44,33.61Zm0-89.94A69.36,69.36,0,0,1,309,282.58h0a69.43,69.43,0,0,1,59.83,8.16,69.44,69.44,0,0,1-103.42,33.61Z"/></svg>