<svg xmlns="http://www.w3.org/2000/svg" viewBox="0 0 64 80" x="0px" y="0px"><g><path d="M32,2A30,30,0,1,0,62,32,30.034,30.034,0,0,0,32,2Zm0,58A28,28,0,1,1,60,32,28.032,28.032,0,0,1,32,60Z"/><path d="M20,11.063a1,1,0,0,0,.48-.123A23.8,23.8,0,0,1,27.2,8.48a1,1,0,1,0-.4-1.96,25.8,25.8,0,0,0-7.282,2.667A1,1,0,0,0,20,11.063Z"/><path d="M17.6,12.8a1,1,0,0,0-1.2-1.6A25.8,25.8,0,0,0,6,32a1,1,0,0,0,2,0A23.817,23.817,0,0,1,17.6,12.8Z"/><path d="M32,56a1,1,0,0,0,0,2A26.029,26.029,0,0,0,58,32a1,1,0,0,0-2,0A24.028,24.028,0,0,1,32,56Z"/><path d="M26.239,55.305A24.062,24.062,0,0,1,22.4,54a1,1,0,1,0-.8,1.832,25.832,25.832,0,0,0,4.161,1.41.938.938,0,0,0,.24.029,1,1,0,0,0,.238-1.97Z"/><path d="M17.7,39.235l-1.047-.951A1,1,0,1,0,15.3,39.765l1.047.951A1,1,0,0,0,17.7,39.235Z"/><path d="M21.293,27.293l-1,1a1,1,0,1,0,1.414,1.414l1-1a1,1,0,0,0-1.414-1.414Z"/><path d="M26.293,36.293l-1,1a1,1,0,1,0,1.414,1.414l1-1a1,1,0,0,0-1.414-1.414Z"/><path d="M26.707,30.293a1,1,0,0,0-1.414,1.414l1,1a1,1,0,0,0,1.414-1.414Z"/><path d="M32,10a21.959,21.959,0,0,0-14.667,5.6.948.948,0,0,0-.135.184,1,1,0,0,0-.123.081c-.43.4-.85.82-1.245,1.25a1,1,0,0,0-.147.207c-.387.726-.718,1.527-1.037,2.3a18.924,18.924,0,0,1-.906,1.995,3.455,3.455,0,0,1-.656.772,8.246,8.246,0,0,0-2.347,4.015,8.145,8.145,0,0,0,.059,4.511A3.665,3.665,0,0,1,11,32c0,.412-.024.87-.074,1.4a15.994,15.994,0,0,0,2.04,9.6l.14.239a9.57,9.57,0,0,0,3,3.072,19.64,19.64,0,0,1,2.1,1.529c.372.324.759.675,1.159,1.036.724.654,1.473,1.332,2.27,1.986a12.008,12.008,0,0,0,4.511,2.332q.311.085.624.16l-.006.025A22.123,22.123,0,0,0,32,54q.189,0,.378,0a22,22,0,0,0,15.6-37.123A21.8,21.8,0,0,0,32,10ZM22.9,49.312c-.76-.625-1.492-1.287-2.2-1.925-.409-.37-.8-.729-1.185-1.061a21.622,21.622,0,0,0-2.313-1.691,7.583,7.583,0,0,1-2.383-2.427l-.127-.216a14.2,14.2,0,0,1-1.78-8.4C12.973,32.995,13,32.476,13,32a5.519,5.519,0,0,0-.3-1.688,6.56,6.56,0,0,1,1.74-6.452,5.244,5.244,0,0,0,1.036-1.249A20.514,20.514,0,0,0,16.5,20.39c.163-.4.332-.8.5-1.185V25a1,1,0,0,0-.707.293l-1,1a1,1,0,1,0,1.414,1.414L17,27.414V31a1,1,0,0,0-.707.293l-1,1a1,1,0,1,0,1.414,1.414l.378-.378A21,21,0,0,0,19.9,42.2l.469.8H19a1,1,0,0,0,0,2h2a.979.979,0,0,0,.47-.133l3.341,5.676A10.073,10.073,0,0,1,22.9,49.312Zm3.1-4.065a9.958,9.958,0,0,0,.467,3.912c.052.184.1.343.136.5l-4.518-7.676a.983.983,0,0,0,.614-.275l1-1a1,1,0,0,0-1.414-1.414l-1,1a.888.888,0,0,0-.085.128,18.937,18.937,0,0,1-1.683-4.482l.768.768a1,1,0,0,0,1.414-1.414l-1-1a1,1,0,0,0-1.414,0,.912.912,0,0,0-.07.105A18.929,18.929,0,0,1,19,31.551V21.083a6.2,6.2,0,0,0,1.6,2.545,7.092,7.092,0,0,0,3.647,1.989A5.2,5.2,0,0,1,27,27.1c2.035,1.994,2.2,2.157,2.729,4.112A17.21,17.21,0,0,1,30.3,34.6c.286,4.557-.859,5.56-2.072,6.622A5.38,5.38,0,0,0,26.008,45.247ZM51.97,33.118A20.049,20.049,0,0,1,32.347,52a20.568,20.568,0,0,1-3.8-.3,4.827,4.827,0,0,0-.15-3.085,8.018,8.018,0,0,1-.4-3.192,3.441,3.441,0,0,1,1.542-2.7c1.38-1.208,3.1-2.712,2.75-8.252a19.241,19.241,0,0,0-.633-3.779c-.649-2.4-1.08-2.883-3.261-5.019a7.092,7.092,0,0,0-3.647-1.989A5.2,5.2,0,0,1,22,22.2a4.852,4.852,0,0,1-1.373-2.761,5.634,5.634,0,0,0-1.34-2.861A19.992,19.992,0,0,1,51.97,33.118Z"/><path d="M41.938,27.584l-2.65-1.408a2.005,2.005,0,0,0-2.7.83l-1.406,2.648a2,2,0,0,0,.828,2.7l2.65,1.408h0a2,2,0,0,0,2.7-.829l1.407-2.65a2,2,0,0,0-.828-2.7ZM39.594,32h0l-2.65-1.406,1.407-2.651L41,29.351Z"/><path d="M37.877,39.113a3.765,3.765,0,0,0-4.1,1.634l-1.184,1.858a3.8,3.8,0,0,0,3.2,5.824A3.935,3.935,0,0,0,36.3,48.4l1.3-.177a3.78,3.78,0,0,0,3.257-4.028l-.13-1.7A3.772,3.772,0,0,0,37.877,39.113Zm-.549,7.123-1.3.177a1.8,1.8,0,0,1-1.571-.585,1.778,1.778,0,0,1-.183-2.147l1.185-1.86h0a1.774,1.774,0,0,1,3.265.82l.131,1.7A1.776,1.776,0,0,1,37.328,46.236Z"/><path d="M33.66,18.4a3.774,3.774,0,0,0-1.712-3.07l-1.1-.715a3.782,3.782,0,0,0-5.1.919l-1.015,1.374a3.774,3.774,0,0,0,4.118,5.86l2.113-.632A3.79,3.79,0,0,0,33.66,18.4ZM30.4,20.217l-2.112.632h0a1.774,1.774,0,0,1-1.935-2.755l1.015-1.373a1.777,1.777,0,0,1,2.4-.433l1.1.715a1.8,1.8,0,0,1-.46,3.214Z"/><path d="M39,24a3,3,0,1,0-3-3A3,3,0,0,0,39,24Zm0-4a1,1,0,1,1-1,1A1,1,0,0,1,39,20Z"/><path d="M45.255,35.094a3,3,0,1,0,3.651,2.161h0A3.006,3.006,0,0,0,45.255,35.094Zm1.606,3.416a1,1,0,1,1,.108-.759A1,1,0,0,1,46.861,38.51Z"/><rect x="46" y="26" width="2" height="2"/><rect x="38.795" y="35.91" width="2" height="2"/><rect x="43" y="43" width="2" height="2"/><rect x="31" y="24" width="2" height="2"/></g></svg>