<svg clip-rule="evenodd" fill-rule="evenodd" image-rendering="optimizeQuality" shape-rendering="geometricPrecision" text-rendering="geometricPrecision" viewBox="0 0 847 1058.75" xmlns="http://www.w3.org/2000/svg"><path d="m173 710h295c60 0 162-95 162-95-206-1-413-1-620 0 0 0 103 95 163 95z"/><path d="m91 600h21c3-9 11-26 29-26 21 0 38 15 47 26h20l4-3c-1-2-29-44-71-44-32 0-46 30-50 47z"/><path d="m103 543c16-10 37-12 61-5 37 10 69 46 81 62h17l6-4c0-1-5-7-12-16 3-2 9-6 20-9 18-5 42 7 51 13-1 9-2 15-2 15l21 1c6-45-5-97-48-118-57-28-101 11-119 39-3-1-6-2-9-3-4-1-8-2-12-3 8-19 37-74 122-60 95 16 87 129 86 145h20c0-1 0-1 0-2 9 2 23-4 30-9v10h20c1-12 3-32 10-40 7-9 23-17 33-22 5 4 9 7 13 10-8 5-17 12-24 18-10 12-12 27-12 35h21c0-5 0-14 6-21 6-6 17-12 25-17 17 18 21 33 22 38h20c0-6-6-48-71-87-55-34-93-18-108-8-2-6-4-11-7-15 11-9 49-34 112 0 73 40 92 94 96 110h21c-2-12-18-80-107-128-70-38-116-13-133 0-1-1-2-3-3-4-3-6-6-11-6-21s3-15 7-21c4-7 9-16 9-31 0-16-5-25-9-32-4-6-7-10-7-21v-51c0-2 0-3-1-6l-11-30c13-2 25-7 31-13 7-7 27-12 43-12h11c4 3 10 5 16 5l379 9c13 0 24-19 24-31 0-13-11-32-24-32l-379 9c-6 0-10 2-14 4h-7c-16-1-34-7-41-14-8-7-27-13-44-13h-28l-10-24c-4-11-23-6-19 5l54 142v52c0 16 5 25 9 32 4 6 7 10 7 21 0 10-3 15-7 21s-9 15-9 31v3c-3-2-7-4-11-6 0-8 3-13 6-18 4-7 9-16 9-31 0-16-5-25-9-32-3-6-6-10-6-21v-50c0-3 0-3-1-5l-54-144c-5-11-23-6-19 5l54 143v51c0 16 5 25 9 32 4 6 6 10 6 21 0 10-2 15-6 21-3 5-7 11-9 21-3-1-6-1-10-2 1-3 3-6 5-9 4-7 9-16 9-31 0-16-5-25-9-32-4-6-7-10-7-21v-51c0-3 0-2 0-4l-55-144c-4-12-23-6-19 5l54 143v51c0 16 6 25 10 32 3 6 6 10 6 21 0 10-3 15-6 21-3 4-6 9-8 17-4 0-7 0-10 0 1-3 2-5 3-7 5-7 10-16 10-31 0-16-5-25-10-32-3-6-6-10-6-21v-50c0-3 0-4-1-5l-54-144c-4-11-23-6-19 5l2 7h-42c-13 0-13 18 0 18h49l4 11h-55c-14 0-14 17 0 17h62l6 17h-65c-13 0-13 18 0 18h72l6 16h-75c-13 0-13 18 0 18h82l8 21v51c0 16 5 25 9 32 4 6 7 10 7 21 0 10-3 15-7 21-3 4-6 10-7 18-67 10-90 66-95 79-17 1-32 4-45 13-32 21-42 60-45 74h21c4-14 13-42 35-57zm336-26c6 2 12 4 19 8-10 5-22 13-28 22-11 13-11 22-35 30-3 1-6 1-9 1 0-7 0-14-1-22 14-1 35-9 54-39zm-150-17c6 3 12 8 16 12-15-3-33-5-45-1-21 6-39 20-48 28-4-3-9-6-14-9 11-16 43-53 91-30zm32 38c2 8 4 15 5 22-14-7-36-14-55-9-14 4-23 10-29 14-4-4-8-8-13-13 7-7 21-17 37-22 14-4 44 4 55 8zm60-2c0-4-1-8-2-11 1-2 14-12 38-12-14 18-28 22-36 23z"/></svg>