<svg xmlns="http://www.w3.org/2000/svg" viewBox="0 0 566.93 708.6624999999999" x="0px" y="0px"><title>a </title><g><circle cx="287.702" cy="264.779" r="6.66" transform="translate(-70.103 107.121) rotate(-18.845)"/><circle cx="317.723" cy="205.401" r="6.66" transform="translate(-49.314 113.635) rotate(-18.845)"/><circle cx="427.823" cy="248.244" r="6.66" transform="translate(-57.251 151.495) rotate(-18.845)"/><circle cx="275.9" cy="324.209" r="6.66" transform="translate(-89.932 106.495) rotate(-18.845)"/><circle cx="331.046" cy="299.359" r="6.66" transform="translate(-78.949 122.975) rotate(-18.845)"/><circle cx="380.38" cy="268.359" r="6.66" transform="translate(-66.292 137.248) rotate(-18.845)"/><circle cx="345" cy="241.583" r="6.66" transform="translate(-59.539 124.385) rotate(-18.845)"/><circle cx="376.823" cy="198.739" r="6.66" transform="translate(-43.995 132.368) rotate(-18.845)"/><path d="M139.947,439.945a31.36,31.36,0,0,1-13.508-3.1c-15.97-7.541-30.666-29.659-39.311-59.164-16.379-55.905-7.6-118.9,23.476-168.521,21.229-33.895,61.838-58.014,120.7-71.687,46.9-10.9,93.566-12.268,117.3-12.12a140.64,140.64,0,0,1,15.307.371l.4.021c.207.012.413.033.614.063,33.214,2.877,64.8,17.666,92.187,43.329,24.668,23.116,45.646,55.015,57.554,87.515q.114.313.2.636A46.507,46.507,0,0,1,486,312.587L158.8,434.244A36.26,36.26,0,0,1,139.947,439.945ZM280.732,142.689c-56.85,6.814-128.358,25.208-158.688,73.633-43.067,68.756-27.7,137.981-21.961,157.56,7.464,25.474,19.772,44.922,32.123,50.754,6.063,2.866,12.319,2.331,19.1-1.638a6.721,6.721,0,0,1,1.413-.872c4.95-3.211,9.936-8.1,14.83-14.556,16.188-21.334,28.3-55.8,28.81-81.962l.049-2.528v-.043l.034-1.888q.059-3.312.127-6.814c.235-10.783.613-22.475,1.779-35l.009-.1c3.173-34.231,11.275-61.78,24.768-84.22C236.737,172.37,256.051,154.845,280.732,142.689ZM209.9,323.251v.073l-.05,2.576c-.521,26.98-12.3,62.03-28.456,85.54L481.3,299.932a33,33,0,0,0,20.565-38.965c-16.194-43.928-62.6-115.427-138.027-121.738-.1,0-.2,0-.3-.011-.055,0-5.559-.309-14.771-.368a146.465,146.465,0,0,0-37.5,6.352c-80.113,24.182-95.147,88.705-99.468,135.183,0,.038-.006.075-.009.112-1.133,12.137-1.5,23.571-1.732,34.12-.046,2.312-.087,4.574-.126,6.773Z"/><path d="M150.143,345.059a6.749,6.749,0,0,1-6.59-5.292l-6-27.131a6.75,6.75,0,0,1,3.506-7.461l60.713-31.2a6.752,6.752,0,1,1,6.387,11.9l-56.3,28.932,3.085,13.954L191.68,312.28q.11-.048.221-.094l8.652-3.877a6.75,6.75,0,0,1,5.52,12.32l-8.859,3.97c-.072.032-.144.063-.216.092l-44.091,19.777A6.75,6.75,0,0,1,150.143,345.059Z"/><path d="M172.929,418.4c-.133,0-.267,0-.4-.012a55.253,55.253,0,0,1-29.517-99.607,6.75,6.75,0,1,1,8.022,10.857,41.753,41.753,0,0,0,22.283,75.273,6.75,6.75,0,0,1-.388,13.488Z"/><path d="M203.153,329.914a6.722,6.722,0,0,1-4.023-1.328,41.531,41.531,0,0,0-7.124-3.854,6.75,6.75,0,0,1,2.438-13.043h.01a6.76,6.76,0,0,1,2.591.517,55.077,55.077,0,0,1,9.918,5.381,6.753,6.753,0,0,1-3.81,12.327Z"/><path d="M159.778,309.891a6.751,6.751,0,0,1-6.69-5.92l-3.463-27.9a6.749,6.749,0,0,1,3.659-6.857l53.523-27a6.75,6.75,0,1,1,6.079,12.053l-49.278,24.854,2.877,23.185a6.76,6.76,0,0,1-6.707,7.582Z"/><path d="M177.073,271.529a6.729,6.729,0,0,1-4.787-1.991,43.723,43.723,0,0,1,55.2-67.245A6.75,6.75,0,1,1,220,213.525a30.224,30.224,0,0,0-38.139,46.5,6.75,6.75,0,0,1-4.787,11.509Z"/><path d="M109.569,418.4a6.754,6.754,0,0,1-6.392-8.922c.145-.436,7.835-23.823.375-38.49-10.619-20.878-7.007-54.979,13.563-67.652,13.2-8.129,13.52-37.419,8.653-48.979a43.252,43.252,0,0,1-1.155-29.71c2.886-8.855,10.27-21.095,29.06-29.117,13.979-5.969,21.806-13.63,28.711-20.389,7.32-7.166,14.234-13.934,25.938-16.646,21.588-5,47.441,2.184,48.531,2.491a6.75,6.75,0,0,1-3.674,12.99c-.229-.064-23.646-6.538-41.811-2.329-8.015,1.856-12.85,6.589-19.542,13.14-7.37,7.215-16.543,16.194-32.854,23.158-25.492,10.885-25.046,31-20.763,41.173,5.707,13.554,7.822,52.259-14.014,65.711-13.724,8.455-16.248,35.025-8.611,50.039,10.087,19.833.775,47.773.374,48.953A6.753,6.753,0,0,1,109.569,418.4Z"/><path d="M188.581,391.367a6.716,6.716,0,0,1-3.742-1.138l-32.264-21.543a6.75,6.75,0,0,1,.537-11.551l45.777-24.763a6.75,6.75,0,0,1,6.423,11.875L169.388,363.68,192.335,379a6.751,6.751,0,0,1-3.755,12.364Z"/></g></svg>