<svg enable-background="new 0 0 100 100" viewBox="0 0 100 125" xmlns="http://www.w3.org/2000/svg"><path d="m76.0179291 36.4951172h-1.7875977l-.0610352-.1303711c-.0205078-.0444336-.046875-.0908203-.0771484-.1357422-.1376953-.2646484-.2890625-.5214844-.4404297-.777832-.015625-.0283203-.0322266-.0561523-.0498047-.0830078l.0019531-.0009766c-.1650391-.2675781-.3398438-.5351563-.5195313-.7978516-.1806641-.2617188-.3720703-.5141602-.5722656-.7661133-.0146484-.0219727-.0302734-.0429688-.046875-.0634766v-.0004883c-.4257813-.53125-.8710938-1.0175781-1.359375-1.4848633-.2402344-.2304688-.4921875-.4604492-.7548828-.6806641-.1005859-.0842285-.2089844-.163208-.3125-.2456055-.3632813-.2944336-.7294922-.5639648-1.0981445-.8041992-.0727539-.0488281-.1420898-.1013184-.215332-.1489258-.2685547-.1733398-.5371094-.3286133-.8066406-.4829102-.0961914-.0708008-.1889648-.121582-.2587891-.1519775-1.4819336-.8901367-2.4023438-2.5076904-2.4023438-4.2269287v-5.1782227c2.3505859-.7719727 3.9814453-2.9707031 3.9814453-5.5126953.0000001-3.210449-2.6123046-5.8222654-5.8222693-5.8222654-1.0644531 0-2.1201172.3100586-3.0400391.8842773-.9208984-.5805664-1.9560547-.8842773-3.0341797-.8842773-3.2099609 0-5.8222656 2.6118164-5.8222656 5.8222656 0 2.5419922 1.6308594 4.7407227 3.9814453 5.5126953v5.1782227c0 1.71875-.9199219 3.3129883-2.4599609 4.2646484-.0019531.0010986-.0029297.0029297-.0043945.0040283-.0307617.0177002-.0615234.0357666-.0717773.0418701l-.1162109.0673828c-1.034668.5754395-1.9887695 1.2658691-2.8530273 2.0529785-.1318359-.1201172-.2592773-.2425537-.3969727-.3580322-.0019531-.0014648-.0024414-.00354-.0039063-.0050049-.5366211-.4597168-1.0834961-.8618164-1.6259766-1.1990967-.0039063-.0024414-.0068359-.0054932-.0107422-.0079346-.0029297-.001709-.0053711-.0031738-.0083008-.0048828-.0019531-.0013428-.0043945-.0030518-.0063477-.0043945-.0009766-.0004883-.0014648-.0004883-.0024414-.0008545-.2626953-.1685791-.5258789-.321167-.7885742-.4718018-.0947266-.0695801-.1870117-.1223145-.2558594-.1525879-1.4814453-.8903809-2.4013672-2.5074463-2.4013672-4.2263184v-5.1782227c2.3505859-.7719727 3.9814453-2.9707031 3.9814453-5.5126953 0-3.210449-2.6123047-5.8222654-5.8222656-5.8222654-1.0644531 0-2.1201172.3100586-3.0400391.8842773-.9208984-.5805664-1.9560546-.8842773-3.0341796-.8842773-3.2099609 0-5.8222637 2.6118164-5.8222637 5.8222656 0 2.5419922 1.6308575 4.7407227 3.9814434 5.5126953v5.1782227c0 1.717041-.918457 3.3095703-2.4555664 4.2614746-.0351563.0202637-.0742188.0432129-.0864258.0505371l-.1113281.0649414c-.0185547.0101318-.0351563.0227051-.0532227.032959-.0717754.0216064-.1455059.0319824-.213377.0710449-.0009766 0-.0009766.0004883-.0009766.0004883-.0009766.0004883-.0019531.0009766-.0029297.0014648-.1464844.0839844-.2919922.1689453-.4365234.2563477-.2265625.1365967-.4492188.2786865-.6660156.4287109-.0004883.0002441-.0009766.0002441-.0009766.0004883-.0039063.0029297-.1494141.1118164-.1533203.1147461-.0004883.0003662-.0004883.0009766-.0009766.0012207-.2070313.145752-.4101563.2954102-.609375.4499512-.1499023.1157227-.2978516.2349854-.4423828.3583984-.0004883.0004883-.0014648.0004883-.0019531.0009766-.0371094.0317383-.0732422.0649414-.1289063.1176758-.0185547.0180664-.0400391.0385742-.0654297.0620117-.0004883.0002441-.0004883.0007324-.0009766.0009766-.1679688.1477051-.3349609.2971191-.4980469.4506836-.1425781.1337891-.28125.2700195-.4169922.4101563-.0009766.0008545-.0009766.0020752-.0019531.0029297-.2104492.2185059-.4155273.4440918-.6123047.6738281-.1347656.1567383-.2646484.3134766-.3867188.4692383-.0908203.1149902-.1479492.2440186-.1811523.3774414-.1030273.1392822-.2133789.2788086-.3071289.4150391-.1767578.2480469-.3427734.5063477-.5078125.765625l.0019531.0009766c-.0205078.0307617-.0410156.0634766-.0585938.0957031-.1757813.2910156-.3330078.581543-.4941406.8950195-.0253906.050293-.0463867.1005859-.0712891.1508789h-1.7919922c-1.8320313 0-3.5615234.7138672-4.8769531 2.0170898-1.3037109 1.3149414-2.0214844 3.0444336-2.0214844 4.8706055 0 3.1217041 2.0859375 5.762207 4.9360352 6.6101074l2.8833008 31.9997559c.0195313.2021484.0449219.3886719.0859375.6757813.0004883.0037842.0029297.0067139.003418.010498.0004883.0029297-.0009766.0059814-.0004883.0090332.6796875 4.2553711 4.0068359 7.546875 8.2705059 8.1899414.5107423.0810546 1.0175783.1220702 1.5068361.1220702h30.4707069c.4882813 0 .9951172-.0410156 1.4990234-.1210938 4.1943359-.6337891 7.5986328-4.0009766 8.2783203-8.1884766.0029297-.0185547-.0053711-.036499-.003418-.0551758.0043945-.0197754.0161133-.0377197.019043-.0576172.0273438-.1943359.0537109-.3837891.0722656-.5883789l2.8740234-31.9897461c1.0976563-.3216553 2.0961914-.9118652 2.9091797-1.7392578 1.3076172-1.2949219 2.0273438-3.0273438 2.0273438-4.8774414.0000001-3.7978515-3.0947265-6.8876952-6.8984374-6.8876952zm-22.4980507-21.6728516c0-2.1074218 1.7148437-3.8222656 3.8222656-3.8222656.8632813 0 1.6923828.3066406 2.3964844.8867188.3691406.3046875.9023438.3046875 1.2714844 0 .4912109-.4042969 1.3066406-.8867188 2.40625-.8867188 2.1074257 0 3.8222694 1.7148438 3.8222694 3.8222656 0 1.855957-1.3251953 3.4326172-3.1523438 3.7485352-.4785194.0830078-.8291054.4990234-.8291054.9853516v5.9570313c0 .9770508.2109375 1.9306641.5996094 2.8027344-1.1396484-.2636719-2.3095703-.3989258-3.4824219-.3989258-1.171875 0-2.3388672.1347656-3.4746094.3974609.3916016-.8706055.6015625-1.8203125.6015625-2.8012695v-5.9570313c0-.4863281-.3505859-.9023438-.8291016-.9853516-1.8271483-.315918-3.1523436-1.8925781-3.1523436-3.7485352zm-20.7617188 0c0-2.1074218 1.7148438-3.8222656 3.8222657-3.8222656.8632813 0 1.6923828.3066406 2.3964844.8867188.3691406.3046875.9023438.3046875 1.2714844 0 .4912108-.4042969 1.3066405-.8867188 2.4062499-.8867188 2.1074219 0 3.8222656 1.7148438 3.8222656 3.8222656 0 1.855957-1.3251953 3.4326172-3.1523438 3.7485352-.4785156.0830078-.8291016.4990234-.8291016.9853516v5.9570313c0 .9770508.2109375 1.9306641.5996094 2.8027344-1.1396484-.2636719-2.3095703-.3989258-3.4824219-.3989258-1.171875 0-2.3388672.1347656-3.4746094.3974609.3916016-.8706055.6015625-1.8203125.6015625-2.8012695v-5.9570313c0-.4863281-.3505859-.9023438-.8291016-.9853516-1.8271483-.315918-3.1523436-1.8925781-3.1523436-3.7485352zm33.6757851 74.0800782c-.4082031.0649414-.8095703.0976562-1.1933594.0976562h-30.4707069c-.3847656 0-.7851563-.0327148-1.2001953-.0986328-2.9560528-.4458008-5.4160137-2.5839844-6.3232403-5.3710938h45.5146484c-.9140606 2.7871094-3.3730449 4.9257813-6.3271465 5.3720704zm6.7050781-7.3720704h-46.2685566l-2.8164062-31.2490234h51.89258zm6.3320313-34.6811523c-.9047852.9208984-2.1269531 1.4284668-3.4433594 1.4311523h-52.0546894c-2.6967773-.0053711-4.8886719-2.199585-4.8886719-4.8974609 0-1.2949219.5117188-2.5249023 1.4355469-3.4560547.9316406-.9233398 2.1621094-1.4316406 3.4628906-1.4316406h2.4257813 26.4179668 20.7656288 2.4257813c2.7011719 0 4.8984375 2.1923828 4.8984375 4.8876953 0 1.3125-.5097656 2.5400391-1.4453125 3.4663086z"/><path d="m50.0003471 78.690918c7.0498047 0 12.7851563-5.7358398 12.7851563-12.7856445 0-7.050293-5.7353516-12.7861328-12.7851563-12.7861328-7.0507813 0-12.7861328 5.7358398-12.7861328 12.7861328 0 7.0498046 5.7353516 12.7856445 12.7861328 12.7856445zm4.2041016-18.2016602c.3984375-.3823242 1.03125-.3696289 1.4140625.0297852 1.3984375 1.4580078 2.1679688 3.3706055 2.1679688 5.3862305 0 1.7607422-.6074219 3.487793-1.7089844 4.8623047-.1972656.246582-.4882813.3745117-.78125.3745117-.21875 0-.4404297-.0717773-.625-.2197266-.4306641-.3457031-.5-.9750977-.1542969-1.4057617.8300781-1.0361328 1.2695313-2.284668 1.2695313-3.6113281 0-1.4970703-.5722656-2.918457-1.6113281-4.0024414-.3828126-.3984376-.3691407-1.0317383.0292968-1.4135743zm-4.2041016-2.3701172c.2158203 0 .4296875.0087891.6416016.0263672.5507813.0449219.9609375.5273438.9160156 1.078125-.0429688.5224609-.4804688.918457-.9960938.918457-.0273438 0-.0546875-.0009766-.0820313-.003418-.1591797-.0126953-.3183594-.0195313-.4794922-.0195313-.5527344 0-1-.4477539-1-1s.4472658-.9999999 1.0000001-.9999999z"/></svg>