<svg xmlns="http://www.w3.org/2000/svg" xmlns:xlink="http://www.w3.org/1999/xlink" version="1.1" x="0px" y="0px" viewBox="0 0 68 85" enable-background="new 0 0 68 68" xml:space="preserve"><g><path d="M32.8,24.1c0.5,0.3,1.1,0.2,1.4-0.3c1.6-2.4-0.5-6.8-1-7.7c-3.2-6,0-12.6,0-12.6c0.2-0.5,0-1.1-0.5-1.3s-1.1,0-1.3,0.4   c-0.2,0.3-3.7,7.5,0,14.5c0.8,1.7,1.8,4.6,1.1,5.6C32.2,23.1,32.3,23.8,32.8,24.1z"/><path d="M37.1,20.2c1.6,0,1.6-2.9-0.2-5.8c-2.3-3.6-0.7-7.9-0.7-7.9c0.2-0.5,0-1.1-0.6-1.3c-0.5-0.2-1.1,0-1.3,0.6   c-0.1,0.2-2.1,5.3,0.8,9.7c0.7,1.1,1.3,2.8,1,3.3C35.8,19.4,36.3,20.2,37.1,20.2z"/><path d="M59.3,29.4c-0.3-1.9-1.6-2.6-3.5-3.2c6.1-4.1,2.4-11.3-1.7-9.6c-2.5,1-2.6,2.8-2.3,4.1c0,0.1,0.2,0.9,0.5,1.3   c1.8,2.6,3.4-0.1,1.9-0.8c-0.2-0.2-0.3-0.3-0.5-0.9c-0.2-0.8,0-1.3,1.2-1.8c2.1-0.9,4,4.4-1.3,6.7c-0.8-0.8-1.4-2.2-3.4-2.2   c-2.7,0-3.2,2.8-4.1,3.9C38.7,26,30.2,26,22.8,26.7c-2.5-2.8-7.3-4.3-14.2-4.5c-0.6,0-1,0.4-1,1c0,0.2-0.1,3.1,0.7,6.4   c-5.2,1.8-7.7,4-7.3,6.5c0.1,0.4,0.2,0.8,0.4,1.2c0,0,0,0.1,0,0.1c-0.4,6.1,2.1,12.7,7,17.9C14.7,62.1,24,66,34,66   c9.9,0,19.1-3.8,25.4-10.4c5-5.3,7.6-11.8,7.2-18.3c0.2-0.4,0.4-0.8,0.4-1.2C67.4,33.5,64.8,31.2,59.3,29.4z M65.1,35.8   c-0.1,0.6-0.6,1.3-1.6,2c-2-1.1-4.3-2-7.1-2.7c0.7-0.9,2-2.7,2.5-3.7C63,32.8,65.3,34.4,65.1,35.8z M12.3,37.1   c1.9,1.7,4.2,2.5,6.9,2.5h0c1,0,2.1-0.1,3.2-0.4c0,0,0.1,0,0.1,0c0,0,0.1,0,0.1,0c0,0,0.1,0,0.1-0.1c0.1,0,0.1-0.1,0.2-0.1   c0.1,0,0.1-0.1,0.1-0.2c0,0,0.1,0,0.1-0.1c0.1-0.1,1-1.7,1.5-3.8c5-0.5,11.4-0.5,17-0.2c-3.7,5.6-8,7.2-8.1,7.2   c-0.4,0.1-0.7,0.5-0.7,0.9c0,0.1,0,0.2,0,0.2c-11.8-0.1-20.3-1.8-25.2-3.8C8.4,38.7,9.8,37.8,12.3,37.1z M55,36.8   c2.4,0.6,4.6,1.3,6.4,2.2c-2.8,1.3-7.1,2.5-12.8,3.3C51.2,40.7,53.3,38.7,55,36.8z M49.1,25.5c0.4-0.8,1.5-0.9,2-0.2   c0.4,0.5,1.3,1.5,1.7,1.8c1.3,0.9,5.6,1.3,4.3,3.5c-2.2,3.7-8.5,12.4-17.6,12.4c-1,0-2-0.1-3-0.3c6.8-4.3,8.9-11.2,11-14.3   C47.9,27.7,49.1,25.4,49.1,25.5z M45,28.7c-3.1,5.7-2,3.7-2.3,4.2c-5.8-0.4-12.6-0.4-17.9,0.1c0.1-1.4-0.1-2.9-0.8-4.3   C30.8,28,38.3,28.1,45,28.7z M22.1,29.2c1.2,2.3,0.7,4.9,0.1,6.6c-1.5-3.1-4.4-8.5-7.4-9.2c-0.5-0.1-1.1,0.2-1.2,0.7   c-0.1,0.5,0.2,1.1,0.7,1.2c2.1,0.5,4.9,5.4,6.5,9c-0.6,0.1-1.1,0.1-1.6,0.1h0c-2.4,0-4.4-0.8-6-2.4c-3.1-3.2-3.6-8.7-3.7-11   C16.2,24.6,20.5,26.3,22.1,29.2z M8.8,31.5c0.5,1.4,1.1,2.7,2,3.9c-2.9,0.9-4.4,2.2-5.1,3.1c-1.7-0.9-2.6-1.9-2.8-2.7   C2.7,34.4,4.9,32.9,8.8,31.5z M57.9,54.2C52.1,60.4,43.3,64,34,64c-9.4,0-18.2-3.6-24.1-10c-4-4.3-6.3-9.6-6.5-14.6   c0.6,0.4,1.4,0.9,2.2,1.3c0,0,0,0,0.1,0c0,0,0,0,0.1,0c5.7,2.7,16,4.5,28.4,4.5c13.6,0,24.7-2.1,29.9-5.3c0.1-0.1,0.3-0.1,0.4-0.2   c0.1-0.1,0.2-0.2,0.4-0.2C64.4,44.7,62,49.9,57.9,54.2z"/></g></svg>