<svg xmlns="http://www.w3.org/2000/svg" xmlns:xlink="http://www.w3.org/1999/xlink" version="1.1" x="0px" y="0px" viewBox="0 0 64 80" style="enable-background:new 0 0 64 64;" xml:space="preserve"><g><path d="M55.153,20.276c0.318-0.305,0.33-0.812,0.025-1.131l-0.272-0.286c-0.148-0.156-0.349-0.244-0.562-0.249   c-0.219,0.003-0.417,0.074-0.572,0.222c-0.044,0.042-0.079,0.083-0.109,0.129l-2.717,4.056c0.292,0.138,0.58,0.288,0.861,0.454   L55.153,20.276z"/><path d="M3.306,46.232C4.835,54.618,12.18,61,21,61h22c8.82,0,16.165-6.382,17.694-14.768C55.803,49.372,43.85,51,32,51   S8.197,49.372,3.306,46.232z M42,57h1c5.195,0,9.939-2.862,12.381-7.468l1.768,0.937C54.359,55.731,48.938,59,43,59h-1V57z M38,57   h2v2h-2V57z"/><path d="M42.187,16.288L40.62,6.105C40.344,4.306,38.821,3,37,3s-3.344,1.306-3.62,3.105l-1.654,10.748l3.651,2.84L42.187,16.288z    M38,6h2v2h-2V6z M38,10h2v2h-2V10z M38,14h2v2h-2V14z M34,6h2v2h-2V6z M34,10h2v2h-2V10z M34,14h2v2h-2V14z"/><path d="M39.845,26.592c-0.331,0.316-0.641,0.66-0.919,1.021l-4.633,6.018c0.266,0.806,0.454,1.645,0.569,2.507l0.846-0.846l8,8   l-1.414,1.414l-7.324-7.324C34.978,37.589,35,37.792,35,38c0,4.336-2.017,8.359-5.324,10.978C30.438,48.991,31.21,49,32,49   c2.583,0,5.017-0.074,7.301-0.205l11.907-8.311c0.375-0.262,0.732-0.554,1.062-0.869l0.17-0.163   c3.591-3.426,3.724-9.134,0.298-12.725c-3.427-3.591-9.136-3.724-12.725-0.297L39.845,26.592z M46.293,40.707l-8-8l1.414-1.414l8,8   L46.293,40.707z M43.707,27.293l8,8l-1.414,1.414l-8-8L43.707,27.293z"/><path d="M54.186,25.347c0.233,0.244,0.448,0.499,0.654,0.758l5.1-4.868c0.193-0.185,0.304-0.433,0.31-0.7   c0.007-0.267-0.092-0.521-0.276-0.714c-0.38-0.397-1.015-0.415-1.414-0.033l-2.025,1.933c0,0-0.001,0.001-0.001,0.002l-3.074,2.933   C53.708,24.876,53.953,25.102,54.186,25.347z"/><path d="M59.293,24.619l-3.345,3.193c0.152,0.289,0.289,0.583,0.413,0.881l4.174-2.521c0.051-0.031,0.097-0.066,0.137-0.104   c0.157-0.15,0.245-0.349,0.251-0.563c0.005-0.214-0.074-0.417-0.222-0.572l-0.273-0.286c-0.148-0.156-0.348-0.244-0.562-0.249   C59.626,24.406,59.448,24.472,59.293,24.619z"/><path d="M55.007,39.548c-0.356,0.473-0.743,0.929-1.185,1.351l-0.17,0.162c-0.403,0.385-0.841,0.743-1.299,1.062l-9.137,6.377   C54.444,47.447,61,44.931,61,43C61,42.183,59.409,40.812,55.007,39.548z"/><path d="M29.425,17.598c-0.422,1.166-1.015,3.16-1.283,5.713l5.252-2.626L29.425,17.598z"/><path d="M33.397,31.517l3.945-5.124c0.34-0.442,0.717-0.861,1.121-1.247l0.169-0.162c1.986-1.895,4.503-2.89,7.051-3.015   c-0.327-2.076-0.837-3.67-1.188-4.598l-16.484,8.242c-0.001,0.096-0.007,0.186-0.008,0.283   C30.288,27.223,32.165,29.172,33.397,31.517z"/><path d="M13.762,47.561c3.404,0.616,7.548,1.087,12.323,1.305C30.291,46.894,33,42.656,33,38c0-6.281-4.853-11.442-11.006-11.95   C21.95,20.049,21.509,14,17,14v2c2.643,0,2.957,5.165,2.995,10.051C13.847,26.564,9,31.723,9,38   C9,41.742,10.781,45.299,13.762,47.561z M19,29c0,0.408,0.779,1,2,1s2-0.592,2-1h2c0,1.682-1.757,3-4,3s-4-1.318-4-3H19z    M12.04,33.555l1.791,0.891c-0.281,0.564-0.494,1.162-0.633,1.776l-1.951-0.442C11.422,35.01,11.688,34.261,12.04,33.555z M13,38   c0,3.06,1.703,5.807,4.445,7.169l-0.891,1.791C13.129,45.257,11,41.824,11,38H13z"/><path d="M10.12,46.78c-1.541-1.916-2.556-4.213-2.935-6.653C4.126,41.226,3,42.337,3,43C3,44.198,5.526,45.62,10.12,46.78z"/><path d="M15,24h4.899c-0.465-2.279-2.484-4-4.899-4h-4.899C10.565,22.279,12.585,24,15,24z"/></g></svg>